<?xml version="1.0" standalone="no"?>
<!DOCTYPE svg PUBLIC "-//W3C//DTD SVG 20010904//EN"
 "http://www.w3.org/TR/2001/REC-SVG-20010904/DTD/svg10.dtd">
<svg version="1.0" xmlns="http://www.w3.org/2000/svg"
 width="512.000000pt" height="512.000000pt" viewBox="0 0 512.000000 512.000000"
 preserveAspectRatio="xMidYMid meet">

<g transform="translate(0.000000,512.000000) scale(0.100000,-0.100000)"
fill="#000000" stroke="none">
<path d="M343 4408 l-343 -343 0 -1812 0 -1813 1515 0 1515 0 0 440 0 440 -75
0 -75 0 0 -365 0 -365 -1365 0 -1365 0 0 1685 0 1685 320 0 320 0 0 320 0 320
1045 0 1045 0 0 -483 0 -483 -102 -13 c-559 -70 -959 -565 -907 -1123 23 -246
132 -473 311 -643 137 -132 282 -213 466 -262 84 -23 117 -26 252 -26 135 0
167 3 253 26 120 32 259 98 352 166 l70 51 167 -167 168 -168 -75 -75 c-41
-42 -75 -80 -75 -86 0 -5 197 -206 438 -446 292 -291 451 -443 481 -458 85
-42 198 -43 281 0 95 49 166 176 157 285 -9 117 -19 129 -498 610 l-438 440
-81 -80 -80 -80 -168 168 c-127 127 -165 170 -157 181 110 152 165 258 202
393 25 88 28 115 28 263 0 126 -4 183 -18 240 -73 302 -273 552 -552 693 -73
36 -208 81 -282 92 l-43 7 0 564 0 564 -1172 0 -1172 0 -343 -342z m294 -295
c-2 -2 -87 -2 -188 -1 l-184 3 185 188 185 188 3 -187 c1 -103 1 -189 -1 -191z
m2423 -649 c325 -61 580 -289 686 -614 26 -78 28 -98 28 -250 1 -155 -1 -171
-28 -255 -49 -155 -116 -267 -225 -375 -342 -339 -885 -343 -1235 -11 -273
260 -348 684 -180 1025 176 355 569 553 954 480z m1902 -2746 c32 -108 -67
-213 -178 -188 -32 7 -98 69 -428 399 l-391 391 105 105 105 105 388 -387
c302 -302 390 -396 399 -425z"/>
<path d="M2760 2976 c-160 -35 -324 -122 -481 -257 -38 -33 -69 -65 -68 -72 1
-7 23 -32 50 -56 l49 -44 42 37 c61 53 160 127 164 123 2 -2 0 -28 -5 -58 -19
-117 23 -243 112 -331 191 -191 514 -134 631 112 29 60 31 73 31 171 l0 107
45 -31 c25 -17 68 -53 97 -80 l52 -49 28 20 c15 11 42 35 58 52 l30 32 -45 40
c-143 127 -315 229 -450 268 -96 27 -252 34 -340 16z m241 -160 c86 -41 138
-123 139 -219 0 -97 -47 -173 -135 -220 -53 -28 -154 -29 -208 -3 -194 95
-183 374 19 451 49 18 137 14 185 -9z"/>
<path d="M640 3555 l0 -75 560 0 560 0 0 75 0 75 -560 0 -560 0 0 -75z"/>
<path d="M640 3235 l0 -75 400 0 400 0 0 75 0 75 -400 0 -400 0 0 -75z"/>
<path d="M640 2755 l0 -75 560 0 560 0 0 75 0 75 -560 0 -560 0 0 -75z"/>
<path d="M640 2435 l0 -75 400 0 400 0 0 75 0 75 -400 0 -400 0 0 -75z"/>
<path d="M640 1955 l0 -75 560 0 560 0 0 75 0 75 -560 0 -560 0 0 -75z"/>
<path d="M640 1635 l0 -75 320 0 320 0 0 75 0 75 -320 0 -320 0 0 -75z"/>
</g>
</svg>
